<?xml version="1.0" encoding="UTF-8" standalone="no"?>
<!-- Created with Inkscape (http://www.inkscape.org/) -->

<svg
   xmlns:dc="http://purl.org/dc/elements/1.1/"
   xmlns:cc="http://creativecommons.org/ns#"
   xmlns:rdf="http://www.w3.org/1999/02/22-rdf-syntax-ns#"
   xmlns:svg="http://www.w3.org/2000/svg"
   xmlns="http://www.w3.org/2000/svg"
   xmlns:sodipodi="http://sodipodi.sourceforge.net/DTD/sodipodi-0.dtd"
   xmlns:inkscape="http://www.inkscape.org/namespaces/inkscape"
   width="7.5831461mm"
   height="4.2404261mm"
   viewBox="0 0 7.583146 4.240426"
   version="1.1"
   id="svg8"
   inkscape:version="0.92.4 (5da689c313, 2019-01-14)"
   sodipodi:docname="logo.svg">
  <defs
     id="defs2" />
  <sodipodi:namedview
     id="base"
     pagecolor="#ffffff"
     bordercolor="#666666"
     borderopacity="1.0"
     inkscape:pageopacity="0.0"
     inkscape:pageshadow="2"
     inkscape:zoom="22.4"
     inkscape:cx="9.7499037"
     inkscape:cy="5.3304055"
     inkscape:document-units="mm"
     inkscape:current-layer="layer1"
     showgrid="false"
     inkscape:window-width="1366"
     inkscape:window-height="731"
     inkscape:window-x="0"
     inkscape:window-y="18"
     inkscape:window-maximized="0"
     showguides="true"
     inkscape:guide-bbox="true"
     fit-margin-top="0"
     fit-margin-left="0"
     fit-margin-right="0"
     fit-margin-bottom="0">
    <sodipodi:guide
       position="2.4547298,0.83917412"
       orientation="0,1"
       id="guide887"
       inkscape:locked="false" />
  </sodipodi:namedview>
  <metadata
     id="metadata5">
    <rdf:RDF>
      <cc:Work
         rdf:about="">
        <dc:format>image/svg+xml</dc:format>
        <dc:type
           rdf:resource="http://purl.org/dc/dcmitype/StillImage" />
        <dc:title></dc:title>
      </cc:Work>
    </rdf:RDF>
  </metadata>
  <g
     inkscape:label="Layer 1"
     inkscape:groupmode="layer"
     id="layer1"
     transform="translate(-48.583866,-130.01774)">
    <g
       id="g916">
      <ellipse
         ry="2.0198102"
         rx="2.0493398"
         cy="132.23836"
         cx="50.633205"
         id="path902"
         style="opacity:1;fill:#008000;fill-opacity:1;stroke:none;stroke-width:2.13400006;stroke-linejoin:round;stroke-miterlimit:4;stroke-dasharray:none;stroke-dashoffset:0;stroke-opacity:0.9728682" />
      <ellipse
         style="opacity:1;fill:#008000;fill-opacity:1;stroke:none;stroke-width:2.13400006;stroke-linejoin:round;stroke-miterlimit:4;stroke-dasharray:none;stroke-dashoffset:0;stroke-opacity:0.9728682"
         id="ellipse904"
         cx="54.117672"
         cy="132.03755"
         rx="2.0493398"
         ry="2.0198102" />
      <g
         style="fill:#ff6600"
         id="g900">
        <path
           inkscape:connector-curvature="0"
           id="path821"
           style="font-style:normal;font-variant:normal;font-weight:normal;font-stretch:normal;font-size:4.23333311px;line-height:6.61458302px;font-family:'Freak Turbulence BRK';-inkscape-font-specification:'Freak Turbulence BRK';text-align:end;letter-spacing:0px;word-spacing:0px;text-anchor:end;fill:#ff6600;fill-opacity:1;stroke:none;stroke-width:0.11308519px;stroke-linecap:butt;stroke-linejoin:miter;stroke-opacity:1"
           d="m 52.607783,132.52295 -0.432329,-0.0569 q -0.0018,-2.3e-4 -0.01592,-0.004 -0.01234,-0.003 -0.02826,-0.007 -0.0157,-0.006 -0.03338,-0.01 -0.0157,-0.006 -0.02441,-0.009 -0.105275,-0.0321 -0.187414,-0.1013 -0.08191,-0.071 -0.111504,-0.17893 -0.0013,-0.003 -0.0046,-0.0207 -0.0015,-0.0166 -0.0026,-0.0222 -0.0013,-0.003 -0.002,-0.013 -5.99e-4,-0.009 -3.63e-4,-0.011 l 0.04343,-0.33008 q 0.0021,-0.0162 0.01251,-0.0257 0.01062,-0.0114 0.02388,-0.0151 0.0153,-0.005 0.03011,-0.007 0.0148,-0.002 0.02735,1.5e-4 l 0.0287,0.004 q 0.01903,0.008 0.03569,0.0339 0.01846,0.0261 0.01563,0.0477 l -0.03847,0.2924 q -2.23e-4,0.002 0.0048,0.0189 0.0071,0.0156 0.01129,0.0252 0.01189,0.0344 0.04112,0.062 0.03125,0.026 0.06883,0.0456 0.03757,0.0196 0.0761,0.0319 0.04055,0.0108 0.07284,0.015 l 0.412597,0.0543 0.06137,-0.46641 q 2.24e-4,-0.002 0.0068,-0.0101 0.0086,-0.01 0.01289,-0.0147 0.01874,-0.0176 0.0356,-0.0209 0.01709,-0.005 0.0422,-0.002 l 0.02691,0.003 q 0.01855,0.0116 0.03592,0.0321 0.01761,0.0187 0.0143,0.0439 l -0.144463,1.09787 q -0.0042,0.0323 -0.03758,0.0498 -0.0331,0.0157 -0.06,0.0122 -0.01076,-10e-4 -0.0262,-0.009 -0.01364,-0.007 -0.02681,-0.0182 -0.01137,-0.0106 -0.02072,-0.0228 -0.0073,-0.0137 -0.0057,-0.0263 z" />
        <path
           inkscape:connector-curvature="0"
           id="path823"
           style="font-style:normal;font-variant:normal;font-weight:normal;font-stretch:normal;font-size:4.23333311px;line-height:6.61458302px;font-family:'Freak Turbulence BRK';-inkscape-font-specification:'Freak Turbulence BRK';text-align:end;letter-spacing:0px;word-spacing:0px;text-anchor:end;fill:#ff6600;fill-opacity:1;stroke:none;stroke-width:0.26458332px;stroke-linecap:butt;stroke-linejoin:miter;stroke-opacity:1"
           d="m 52.984329,131.11749 q 0.07056,-0.0142 0.151951,0.0255 0.08057,0.0356 0.09558,0.11033 l 0.300258,1.49413 q 0.0042,0.0208 0.03244,0.0539 0.03241,0.0324 0.04904,0.0506 0.07978,0.0746 0.181922,0.11027 0.101311,0.0315 0.206759,0.0404 0.109581,0.008 0.219175,-0.005 0.109482,-0.0138 0.209093,-0.0339 0.09131,-0.0183 0.205945,-0.0496 0.113709,-0.0358 0.214938,-0.0907 0.105384,-0.0558 0.185025,-0.13214 0.08295,-0.0815 0.112733,-0.19106 0.0041,-0.0224 0.0099,-0.0581 0.0091,-0.0407 0.0082,-0.0448 l -0.301902,-1.50237 q -0.0059,-0.029 0.0099,-0.0581 0.01907,-0.034 0.04394,-0.0606 0.02902,-0.0274 0.05972,-0.0466 0.03485,-0.0199 0.05975,-0.0249 0.0664,-0.0133 0.141986,0.0191 0.07974,0.0315 0.09558,0.11033 l 0.306098,1.52318 q 0.01169,0.0581 9.55e-4,0.13367 -0.0074,0.0705 -0.02231,0.12538 -0.05546,0.17524 -0.167425,0.30568 -0.108644,0.12547 -0.253847,0.21941 -0.141879,0.089 -0.30704,0.1481 -0.165987,0.055 -0.332003,0.0883 -0.166016,0.0334 -0.337036,0.0419 -0.171019,0.008 -0.332073,-0.0201 -0.161096,-0.0281 -0.309767,-0.10184 -0.149511,-0.0779 -0.266696,-0.2098 -0.03324,-0.0364 -0.07066,-0.0937 -0.03741,-0.0573 -0.04659,-0.1029 l -0.318606,-1.58544 q -0.01419,-0.0705 0.04472,-0.12125 0.06222,-0.0556 0.120331,-0.0674 z" />
        <path
           inkscape:connector-curvature="0"
           id="path819"
           style="font-style:normal;font-variant:normal;font-weight:normal;font-stretch:normal;font-size:4.23333311px;line-height:6.61458302px;font-family:'Freak Turbulence BRK';-inkscape-font-specification:'Freak Turbulence BRK';text-align:end;letter-spacing:0px;word-spacing:0px;text-anchor:end;fill:#ff6600;fill-opacity:1;stroke:none;stroke-width:0.26458332px;stroke-linecap:butt;stroke-linejoin:miter;stroke-opacity:1"
           d="m 49.540774,130.424 q 0.05907,0.005 0.10021,0.021 0.04114,0.0161 0.07071,0.0696 0.0074,0.0134 0.01762,0.0439 0.01478,0.0267 0.01408,0.0352 l -0.03555,0.43034 0.01687,10e-4 q 0.202092,-0.081 0.407735,-0.10224 0.209866,-0.0209 0.425033,-0.003 0.274233,0.0226 0.494392,0.13426 0.224379,0.11195 0.375324,0.29011 0.150948,0.17813 0.224597,0.41785 0.074,0.23549 0.05099,0.51394 -0.02265,0.27423 -0.134635,0.49861 -0.111633,0.22016 -0.290115,0.37532 -0.178131,0.15095 -0.417841,0.22459 -0.235488,0.074 -0.505503,0.0517 -0.219385,-0.0181 -0.418759,-0.0728 -0.195155,-0.0543 -0.38965,-0.16812 l -0.01266,-0.001 q -0.03124,0.0697 -0.09026,0.11573 -0.05481,0.0465 -0.13919,0.0395 -0.06328,-0.005 -0.131169,-0.0576 -0.06332,-0.0562 -0.05704,-0.13214 l 0.213283,-2.58201 q 0.0063,-0.0759 0.07304,-0.1129 0.07098,-0.0366 0.13849,-0.031 z m 0.969558,0.91265 q -0.09704,-0.008 -0.211994,-0.005 -0.110351,-0.001 -0.222868,0.024 -0.107911,0.0208 -0.20561,0.0722 -0.09313,0.0475 -0.155643,0.13582 -0.01022,0.0204 -0.03441,0.0566 -0.01966,0.0324 -0.02105,0.0492 l -0.07109,0.86067 q -0.0031,0.038 0.01834,0.0865 0.02569,0.0489 0.04436,0.0801 0.06088,0.0857 0.145299,0.14368 0.08898,0.0541 0.187799,0.092 0.09916,0.0337 0.199719,0.0505 0.104815,0.0167 0.201852,0.0247 0.181415,0.015 0.338179,-0.0316 0.157111,-0.0507 0.275865,-0.15137 0.118754,-0.10063 0.190365,-0.24763 0.07583,-0.14666 0.09117,-0.33229 0.01568,-0.18986 -0.03049,-0.35083 -0.04617,-0.16099 -0.151022,-0.28009 -0.100632,-0.11875 -0.251854,-0.19072 -0.147001,-0.0716 -0.336854,-0.0873 z" />
        <rect
           style="opacity:1;fill:#ff6600;fill-opacity:1;stroke:none;stroke-width:3.34510422;stroke-linejoin:round;stroke-miterlimit:4;stroke-dasharray:none;stroke-dashoffset:0;stroke-opacity:0.9728682"
           id="rect831"
           width="2.0316219"
           height="0.17717634"
           x="60.077724"
           y="127.505"
           transform="rotate(4.7221324)" />
        <rect
           y="116.61676"
           x="-80.96833"
           height="0.17717634"
           width="2.0316219"
           id="rect833"
           style="opacity:1;fill:#ff6600;fill-opacity:1;stroke:none;stroke-width:3.34510422;stroke-linejoin:round;stroke-miterlimit:4;stroke-dasharray:none;stroke-dashoffset:0;stroke-opacity:0.9728682"
           transform="rotate(-55.277868)" />
        <rect
           transform="rotate(-115.27787)"
           style="opacity:1;fill:#ff6600;fill-opacity:1;stroke:none;stroke-width:3.34510422;stroke-linejoin:round;stroke-miterlimit:4;stroke-dasharray:none;stroke-dashoffset:0;stroke-opacity:0.9728682"
           id="rect835"
           width="2.0316219"
           height="0.17717634"
           x="-142.06186"
           y="-10.976826" />
        <ellipse
           style="opacity:1;fill:#ff6600;fill-opacity:1;stroke:none;stroke-width:1.57282209;stroke-linejoin:round;stroke-miterlimit:4;stroke-dasharray:none;stroke-dashoffset:0;stroke-opacity:0.9728682"
           id="path891"
           cx="69.044006"
           cy="124.758"
           rx="0.15800913"
           ry="0.097259082"
           transform="rotate(7.2319659)"
           inkscape:transform-center-x="-0.075169555"
           inkscape:transform-center-y="0.025056518" />
      </g>
    </g>
  </g>
</svg>
